<svg id="Layer_1" data-name="Layer 1" xmlns="http://www.w3.org/2000/svg" viewBox="0 0 108.13 103.38"><defs><style>.cls-1{fill:#fff;}.cls-1,.cls-2,.cls-3{stroke:#231f20;stroke-miterlimit:10;}.cls-2,.cls-3{fill:#231f20;}.cls-3{stroke-linecap:round;}</style></defs><ellipse class="cls-1" cx="54.06" cy="51.69" rx="53.56" ry="51.19"/><path class="cls-2" d="M124.81,42.09" transform="translate(-71.67 -33.41)"/><polygon class="cls-3" points="46.92 70.72 29.55 70.81 38.44 59.76 46.92 70.72"/><polyline class="cls-2" points="62.12 35.07 59.69 31.88 47.93 15.87 54.31 7.13 66.33 23.27 74.22 33.86 101.75 70.85 88.29 70.85 68.96 44.51 59.83 56.99 59.36 56.5 70.27 70.85 56.71 70.81 51.02 62.82 43.56 52.79 37.72 44.93 19.19 70.8 6.38 70.8 31.69 36.81 37.79 28.63 43.86 36.09 50.1 44.31 51.38 46.01 52.69 47.72 62.12 35.07"/></svg>