<svg id="Layer_1" data-name="Layer 1" xmlns="http://www.w3.org/2000/svg" viewBox="0 0 97.36 65.07"><defs><style>.cls-1,.cls-2{fill:#231f20;stroke:#231f20;stroke-miterlimit:10;}.cls-2{stroke-linecap:round;}</style></defs><path class="cls-1" d="M124.74,42.09" transform="translate(-76.99 -39.69)"/><polygon class="cls-2" points="41.53 64.44 24.16 64.53 33.06 53.48 41.53 64.44"/><polyline class="cls-1" points="56.73 28.79 54.3 25.59 42.55 9.59 48.93 0.84 60.94 16.99 68.83 27.58 96.36 64.57 82.91 64.57 63.57 38.23 54.44 50.71 53.97 50.22 64.88 64.57 51.32 64.53 45.63 56.54 38.17 46.5 32.34 38.64 13.81 64.52 1 64.52 26.31 30.53 32.4 22.35 38.47 29.81 44.71 38.03 46 39.73 47.31 41.44 56.73 28.79"/></svg>